<?xml version="1.0" encoding="utf-8"?>

<!-- Uploaded to: SVG Repo, www.svgrepo.com, Generator: SVG Repo Mixer Tools -->
<svg fill="#000000" version="1.1" id="Layer_1" xmlns="http://www.w3.org/2000/svg" xmlns:xlink="http://www.w3.org/1999/xlink" 
	 viewBox="0 0 24 24" xml:space="preserve">
<style type="text/css">
	.st0{fill:none;}
</style>
<path d="M19.2,4.4L2.9,10.7c-1.1,0.4-1.1,1.1-0.2,1.3l4.1,1.3l1.6,4.8c0.2,0.5,0.1,0.7,0.6,0.7c0.4,0,0.6-0.2,0.8-0.4
	c0.1-0.1,1-1,2-2l4.2,3.1c0.8,0.4,1.3,0.2,1.5-0.7l2.8-13.1C20.6,4.6,19.9,4,19.2,4.4z M17.1,7.4l-7.8,7.1L9,17.8L7.4,13l9.2-5.8
	C17,6.9,17.4,7.1,17.1,7.4z"/>
<rect y="0" class="st0" width="24" height="24"/>
</svg>