<?xml version="1.0" standalone="no"?>
<!DOCTYPE svg PUBLIC "-//W3C//DTD SVG 20010904//EN"
 "http://www.w3.org/TR/2001/REC-SVG-20010904/DTD/svg10.dtd">
<svg version="1.0" xmlns="http://www.w3.org/2000/svg"
 width="627.000000pt" height="439.000000pt" viewBox="0 0 627.000000 439.000000"
 preserveAspectRatio="xMidYMid meet">

<g transform="translate(0.000000,439.000000) scale(0.100000,-0.100000)"
fill="#000000" stroke="none">
<path d="M2245 4364 c-648 -16 -1264 -53 -1500 -90 -106 -17 -252 -86 -348
-165 -218 -180 -294 -387 -353 -959 -23 -229 -26 -309 -31 -790 -7 -668 8
-1026 58 -1370 20 -144 58 -315 83 -378 102 -259 299 -434 556 -497 92 -22
560 -65 835 -75 1017 -40 2233 -40 3175 0 279 11 312 14 580 40 237 24 248 26
330 52 227 72 413 255 497 486 31 85 69 267 88 422 8 69 19 163 25 210 28 231
40 1175 20 1580 -19 380 -76 787 -130 930 -91 239 -272 417 -500 488 -87 28
-95 29 -330 51 -527 51 -874 62 -1985 65 -522 2 -1004 2 -1070 0z m208 -1138
c119 -62 256 -134 452 -236 77 -40 176 -92 220 -115 44 -23 157 -82 250 -130
94 -48 206 -107 250 -130 114 -60 260 -136 488 -255 108 -56 197 -106 197
-110 0 -5 -60 -38 -132 -75 -73 -37 -155 -80 -183 -95 -27 -15 -158 -82 -290
-150 -132 -67 -262 -135 -290 -150 -27 -15 -126 -67 -220 -115 -93 -48 -215
-111 -270 -140 -55 -29 -185 -96 -290 -150 -104 -54 -213 -110 -242 -125 -29
-15 -55 -25 -58 -22 -3 3 -5 466 -5 1029 0 736 3 1023 11 1023 6 0 57 -24 112
-54z"/>
</g>
</svg>
